<svg width="12" height="12" viewBox="0 0 12 12" fill="none" xmlns="http://www.w3.org/2000/svg">
<g clip-path="url(#clip0_170_2726)">
<path d="M5.99625 11.9998C5.81304 11.9998 5.66071 11.9382 5.53929 11.815C5.41786 11.6918 5.35714 11.5391 5.35714 11.357V6.64267H0.642857C0.460714 6.64267 0.308036 6.58071 0.184821 6.45678C0.0616071 6.33284 0 6.17927 0 5.99607C0 5.81285 0.0616071 5.66053 0.184821 5.5391C0.308036 5.41767 0.460714 5.35696 0.642857 5.35696H5.35714V0.642674C5.35714 0.460531 5.41911 0.307853 5.54304 0.184638C5.66698 0.061424 5.82055 -0.000183105 6.00375 -0.000183105C6.18696 -0.000183105 6.33929 0.061424 6.46071 0.184638C6.58214 0.307853 6.64286 0.460531 6.64286 0.642674V5.35696H11.3571C11.5393 5.35696 11.692 5.41892 11.8152 5.54285C11.9384 5.6668 12 5.82037 12 6.00357C12 6.18678 11.9384 6.3391 11.8152 6.46053C11.692 6.58196 11.5393 6.64267 11.3571 6.64267H6.64286V11.357C6.64286 11.5391 6.58089 11.6918 6.45696 11.815C6.33302 11.9382 6.17945 11.9998 5.99625 11.9998Z" fill="#C7C7D1"/>
</g>
<defs>
<clipPath id="clip0_170_2726">
<rect width="12" height="12" fill="white"/>
</clipPath>
</defs>
</svg>
