<svg width="16" height="16" viewBox="0 0 16 16" fill="none" xmlns="http://www.w3.org/2000/svg">
<path fill-rule="evenodd" clip-rule="evenodd" d="M2 0C0.895431 0 0 0.895431 0 2V14C0 15.1046 0.895431 16 2 16H14C15.1046 16 16 15.1046 16 14V2C16 0.895431 15.1046 0 14 0H2ZM5.97828 12.3623C6.03791 12.3874 6.10351 12.4 6.17508 12.4C6.24665 12.4 6.31225 12.3874 6.37189 12.3623C6.43152 12.3372 6.49116 12.2933 6.5508 12.2305L13.439 4.97937C13.5463 4.86637 13.6 4.73139 13.6 4.57444C13.6 4.41749 13.5463 4.28251 13.439 4.16951C13.3316 4.0565 13.2034 4 13.0543 4C12.9052 4 12.777 4.0565 12.6696 4.16951L6.17508 11.0063L3.31246 7.99283C3.20511 7.87982 3.07987 7.82332 2.93674 7.82332C2.79361 7.82332 2.66837 7.87982 2.56102 7.99283C2.45367 8.10583 2.4 8.24395 2.4 8.40718C2.4 8.5704 2.45367 8.70852 2.56102 8.82152L5.79936 12.2305C5.859 12.2933 5.91864 12.3372 5.97828 12.3623Z" fill="#F39C12"/>
</svg>
