<svg width="12" height="12" viewBox="0 0 12 12" fill="none" xmlns="http://www.w3.org/2000/svg">
<path d="M6 6.64368L2.78161 9.86207C2.68966 9.95402 2.58238 10 2.45977 10C2.33716 10 2.22989 9.95402 2.13793 9.86207C2.04598 9.77011 2 9.66284 2 9.54023C2 9.41762 2.04598 9.31034 2.13793 9.21839L5.35632 6L2.13793 2.78161C2.04598 2.68966 2 2.58238 2 2.45977C2 2.33716 2.04598 2.22989 2.13793 2.13793C2.22989 2.04598 2.33716 2 2.45977 2C2.58238 2 2.68966 2.04598 2.78161 2.13793L6 5.35632L9.21839 2.13793C9.31034 2.04598 9.41762 2 9.54023 2C9.66284 2 9.77011 2.04598 9.86207 2.13793C9.95402 2.22989 10 2.33716 10 2.45977C10 2.58238 9.95402 2.68966 9.86207 2.78161L6.64368 6L9.86207 9.21839C9.95402 9.31034 10 9.41762 10 9.54023C10 9.66284 9.95402 9.77011 9.86207 9.86207C9.77011 9.95402 9.66284 10 9.54023 10C9.41762 10 9.31034 9.95402 9.21839 9.86207L6 6.64368Z" fill="#C7C7D1"/>
</svg>
