<svg width="12" height="12" viewBox="0 0 12 12" fill="none" xmlns="http://www.w3.org/2000/svg">
<path d="M5.33333 11C5.14444 11 4.98611 10.9201 4.85833 10.7604C4.73056 10.6007 4.66667 10.4028 4.66667 10.1667C4.66667 9.93056 4.73056 9.73264 4.85833 9.57292C4.98611 9.41319 5.14444 9.33333 5.33333 9.33333H6.66667C6.85556 9.33333 7.01389 9.41319 7.14167 9.57292C7.26944 9.73264 7.33333 9.93056 7.33333 10.1667C7.33333 10.4028 7.26944 10.6007 7.14167 10.7604C7.01389 10.9201 6.85556 11 6.66667 11H5.33333ZM2.66667 6.83333C2.47778 6.83333 2.31944 6.75347 2.19167 6.59375C2.06389 6.43403 2 6.23611 2 6C2 5.76389 2.06389 5.56597 2.19167 5.40625C2.31944 5.24653 2.47778 5.16667 2.66667 5.16667H9.33333C9.52222 5.16667 9.68056 5.24653 9.80833 5.40625C9.93611 5.56597 10 5.76389 10 6C10 6.23611 9.93611 6.43403 9.80833 6.59375C9.68056 6.75347 9.52222 6.83333 9.33333 6.83333H2.66667ZM0.666667 2.66667C0.477778 2.66667 0.319444 2.58681 0.191667 2.42708C0.0638889 2.26736 0 2.06944 0 1.83333C0 1.59722 0.0638889 1.39931 0.191667 1.23958C0.319444 1.07986 0.477778 1 0.666667 1H11.3333C11.5222 1 11.6806 1.07986 11.8083 1.23958C11.9361 1.39931 12 1.59722 12 1.83333C12 2.06944 11.9361 2.26736 11.8083 2.42708C11.6806 2.58681 11.5222 2.66667 11.3333 2.66667H0.666667Z" fill="#C7C7D1"/>
</svg>
