<svg width="12" height="12" viewBox="0 0 12 12" fill="none" xmlns="http://www.w3.org/2000/svg">
<path d="M0.223861 8.81384C0.398896 8.95387 0.591436 9.02826 0.801479 9.03701C1.01152 9.04576 1.19531 8.97137 1.35284 8.81384L5.97378 4.1929L10.621 8.84009C10.761 8.98012 10.9492 9.04576 11.1855 9.03701C11.4218 9.02826 11.6099 8.95387 11.7499 8.81384C11.925 8.6388 12.0081 8.45064 11.9994 8.24935C11.9906 8.04806 11.9075 7.86865 11.7499 7.71111L6.52514 2.4863C6.43762 2.39879 6.3501 2.33752 6.26259 2.30252C6.17507 2.26751 6.0788 2.25001 5.97378 2.25001C5.86876 2.25001 5.77249 2.26751 5.68497 2.30252C5.59745 2.33752 5.50994 2.39879 5.42242 2.4863L0.223861 7.68486C0.0663282 7.84239 -0.00806037 8.02618 0.000691484 8.23622C0.00944333 8.44626 0.0838318 8.6388 0.223861 8.81384Z" fill="#C7C7D1"/>
</svg>
