<svg width="12" height="13" viewBox="0 0 12 13" fill="none" xmlns="http://www.w3.org/2000/svg">
<path d="M9.16992 12.4201C9.30995 12.245 9.38434 12.0525 9.39309 11.8424C9.40184 11.6324 9.32745 11.4486 9.16992 11.2911L4.54898 6.67014L9.19617 2.02295C9.3362 1.88292 9.40184 1.69476 9.39309 1.45846C9.38434 1.22216 9.30994 1.034 9.16992 0.893971C8.99488 0.718936 8.80672 0.635794 8.60543 0.644546C8.40414 0.653298 8.22473 0.736439 8.06719 0.893971L2.84238 6.11878C2.75487 6.2063 2.6936 6.29382 2.6586 6.38133C2.62359 6.46885 2.60609 6.56512 2.60609 6.67014C2.60609 6.77516 2.62359 6.87143 2.6586 6.95895C2.6936 7.04647 2.75487 7.13399 2.84238 7.2215L8.04094 12.4201C8.19847 12.5776 8.38226 12.652 8.5923 12.6432C8.80234 12.6345 8.99488 12.5601 9.16992 12.4201Z" fill="#C7C7D1"/>
</svg>
