<svg width="12" height="13" viewBox="0 0 12 13" fill="none" xmlns="http://www.w3.org/2000/svg">
<path d="M2.83008 0.867782C2.69005 1.04282 2.61566 1.23536 2.60691 1.4454C2.59816 1.65544 2.67255 1.83923 2.83008 1.99676L7.45102 6.6177L2.80383 11.2649C2.6638 11.4049 2.59816 11.5931 2.60691 11.8294C2.61566 12.0657 2.69006 12.2538 2.83008 12.3939C3.00512 12.5689 3.19328 12.652 3.39457 12.6433C3.59586 12.6345 3.77527 12.5514 3.93281 12.3939L9.15762 7.16906C9.24513 7.08154 9.3064 6.99402 9.3414 6.90651C9.37641 6.81899 9.39391 6.72272 9.39391 6.6177C9.39391 6.51268 9.37641 6.41641 9.3414 6.32889C9.3064 6.24137 9.24513 6.15386 9.15762 6.06634L3.95906 0.867782C3.80153 0.710249 3.61774 0.63586 3.4077 0.644612C3.19766 0.653364 3.00512 0.727753 2.83008 0.867782Z" fill="#FFFFFF"/>
</svg>
