<svg width="12" height="12" viewBox="0 0 12 12" fill="none" xmlns="http://www.w3.org/2000/svg">
<path d="M11.7761 2.47394C11.6011 2.33391 11.4086 2.25952 11.1985 2.25077C10.9885 2.24202 10.8047 2.31641 10.6472 2.47394L6.02622 7.09488L1.37903 2.44769C1.239 2.30766 1.05084 2.24202 0.81454 2.25077C0.578242 2.25952 0.390079 2.33392 0.250051 2.47394C0.0750151 2.64898 -0.00812666 2.83714 0.000625129 3.03843C0.00937691 3.23972 0.0925185 3.41913 0.250051 3.57667L5.47486 8.80148C5.56238 8.88899 5.6499 8.95026 5.73741 8.98526C5.82493 9.02027 5.9212 9.03777 6.02622 9.03777C6.13124 9.03777 6.22751 9.02027 6.31503 8.98526C6.40255 8.95026 6.49007 8.88899 6.57758 8.80148L11.7761 3.60292C11.9337 3.44539 12.0081 3.2616 11.9993 3.05156C11.9906 2.84152 11.9162 2.64898 11.7761 2.47394Z" fill="#C7C7D1"/>
</svg>
