<svg width="127" height="23" viewBox="0 0 127 23" fill="none" xmlns="http://www.w3.org/2000/svg">
<mask id="mask0_141_1074" style="mask-type:luminance" maskUnits="userSpaceOnUse" x="0" y="0" width="29" height="23">
<path d="M28.9143 0H0V23H28.9143V0Z" fill="white"/>
</mask>
<g mask="url(#mask0_141_1074)">
<path d="M28.4805 9.76516H21.4491C21.2651 9.76516 21.1008 9.86373 21.0088 10.0214C19.7011 12.1637 17.3814 13.5963 14.7265 13.5963C12.0717 13.5963 9.75197 12.1637 8.44426 10.0214C8.34569 9.86373 8.18797 9.76516 8.00397 9.76516H0.289118C-0.0394535 9.76516 -0.111739 10.2974 0.203689 10.4026L7.98426 13.1232C8.20769 13.202 8.26683 13.524 8.08283 13.6883L2.77969 18.4592C2.52997 18.6826 2.73369 19.1229 3.04255 19.0309L11.7103 16.3432C11.8548 16.3037 11.9994 16.3826 12.0585 16.5337L14.3388 22.724C14.4703 23.0854 14.9697 23.0854 15.1011 22.724L17.3945 16.5337C17.4471 16.3826 17.6048 16.3037 17.7428 16.3432L26.4105 19.0374C26.7194 19.136 26.9165 18.6892 26.6734 18.4657L21.3768 13.6949C21.1928 13.5306 21.252 13.202 21.4754 13.1232L28.6317 10.626C29.0917 10.4617 28.9865 9.76516 28.4937 9.75201H28.4871L28.4805 9.76516Z" fill="#F39C12"/>
<path d="M14.7265 12.0783C17.9925 12.0783 20.6342 9.37743 20.6342 6.03914C20.6342 2.70086 17.986 0 14.7265 0C11.4671 0 8.81882 2.70086 8.81882 6.03914C8.81882 9.37743 11.4671 12.0783 14.7265 12.0783Z" fill="#F39C12"/>
</g>
<path d="M37.811 6.33901C44.0022 5.74347 43.4384 7.24917 46.9118 11.4966C50.3965 7.23793 49.8326 5.74347 56.0126 6.33901V16.6654H51.9753V11.1595C46.8892 18.5531 46.9344 18.5194 41.8595 11.1595V16.6654H37.8223V6.33901H37.811Z" fill="#C7C7D1"/>
<path d="M58.347 6.36148H70.4702V9.00206H62.3843V10.328H70.4702V12.7214H62.3843V14.0473H70.4702V16.6991H58.347V6.37272V6.36148Z" fill="#C7C7D1"/>
<path d="M72.6242 6.33901C78.8154 5.74347 78.2516 7.24917 81.725 11.4966C85.2097 7.23793 84.6458 5.74347 90.8258 6.33901V16.6654H86.7885V11.1595C81.7024 18.5531 81.7476 18.5194 76.6727 11.1595V16.6654H72.6354V6.33901H72.6242Z" fill="#C7C7D1"/>
<path d="M106.4 11.1258C107.764 18.688 91.9197 19.1149 92.258 11.8786C90.8935 4.31645 106.727 3.87822 106.4 11.1258ZM102.351 11.373C102.543 8.47396 95.7315 8.59756 96.2841 11.6314C96.0923 14.5304 102.904 14.4181 102.351 11.373Z" fill="#C7C7D1"/>
<path d="M117.576 6.35027C121.658 6.21543 122.978 12.1933 119.233 13.7776L121.489 16.6766C113.042 17.4182 119.188 13.5079 111.633 14.1596V16.6766H107.595V6.35027H117.576ZM111.633 9.37289V11.137C119.504 11.8225 119.47 8.6987 111.633 9.37289Z" fill="#C7C7D1"/>
<path d="M126.778 6.33899V16.6654H122.741V6.33899H126.778Z" fill="#C7C7D1"/>
</svg>
