<svg width="12" height="12" viewBox="0 0 12 12" fill="none" xmlns="http://www.w3.org/2000/svg">
<g clip-path="url(#clip0_170_12300)">
<path d="M0.982265 11.017H1.70259L8.95498 3.75982L8.23465 3.03902L0.982265 10.2962V11.017ZM11.0341 3.0554L8.93861 0.958514L9.6233 0.273372C9.81077 0.0857772 10.0437 -0.00529 10.322 0.000170649C10.6003 0.00563129 10.8322 0.101193 11.0177 0.286855L11.7217 0.991278C11.9072 1.17694 12 1.40629 12 1.67932C12 1.95235 11.9074 2.1815 11.7223 2.36675L11.0341 3.0554ZM0.496486 11.9999C0.355814 11.9999 0.237899 11.9524 0.142739 11.8572C0.0475797 11.762 0 11.6441 0 11.5034V10.1007C0 10.0344 0.0109141 9.97404 0.0327422 9.91943C0.0545703 9.86483 0.0927694 9.81022 0.14734 9.75561L8.25102 1.64656L10.3465 3.74344L2.24284 11.8525C2.18827 11.9071 2.13251 11.9453 2.07557 11.9672C2.01862 11.989 1.95978 11.9999 1.89904 11.9999H0.496486ZM8.59482 3.39942L8.23465 3.03902L8.95498 3.75982L8.59482 3.39942Z" fill="#C7C7D1"/>
</g>
<defs>
<clipPath id="clip0_170_12300">
<rect width="12" height="12" fill="white"/>
</clipPath>
</defs>
</svg>
