<svg width="16" height="16" viewBox="0 0 16 16" fill="none" xmlns="http://www.w3.org/2000/svg">
<path d="M7.99998 11.3333C8.9222 11.3333 9.70831 11.0083 10.3583 10.3583C11.0083 9.70831 11.3333 8.9222 11.3333 7.99998C11.3333 7.07776 11.0083 6.29165 10.3583 5.64165C9.70831 4.99165 8.9222 4.66665 7.99998 4.66665C7.07776 4.66665 6.29165 4.99165 5.64165 5.64165C4.99165 6.29165 4.66665 7.07776 4.66665 7.99998C4.66665 8.9222 4.99165 9.70831 5.64165 10.3583C6.29165 11.0083 7.07776 11.3333 7.99998 11.3333ZM7.99998 14.6666C7.07776 14.6666 6.21109 14.4916 5.39998 14.1416C4.58887 13.7916 3.88331 13.3166 3.28331 12.7166C2.68331 12.1166 2.20831 11.4111 1.85831 10.6C1.50831 9.78887 1.33331 8.9222 1.33331 7.99998C1.33331 7.07776 1.50831 6.21109 1.85831 5.39998C2.20831 4.58887 2.68331 3.88331 3.28331 3.28331C3.88331 2.68331 4.58887 2.20831 5.39998 1.85831C6.21109 1.50831 7.07776 1.33331 7.99998 1.33331C8.9222 1.33331 9.78887 1.50831 10.6 1.85831C11.4111 2.20831 12.1166 2.68331 12.7166 3.28331C13.3166 3.88331 13.7916 4.58887 14.1416 5.39998C14.4916 6.21109 14.6666 7.07776 14.6666 7.99998C14.6666 8.9222 14.4916 9.78887 14.1416 10.6C13.7916 11.4111 13.3166 12.1166 12.7166 12.7166C12.1166 13.3166 11.4111 13.7916 10.6 14.1416C9.78887 14.4916 8.9222 14.6666 7.99998 14.6666ZM7.99998 13.3333C9.48887 13.3333 10.75 12.8166 11.7833 11.7833C12.8166 10.75 13.3333 9.48887 13.3333 7.99998C13.3333 6.51109 12.8166 5.24998 11.7833 4.21665C10.75 3.18331 9.48887 2.66665 7.99998 2.66665C6.51109 2.66665 5.24998 3.18331 4.21665 4.21665C3.18331 5.24998 2.66665 6.51109 2.66665 7.99998C2.66665 9.48887 3.18331 10.75 4.21665 11.7833C5.24998 12.8166 6.51109 13.3333 7.99998 13.3333Z" fill="#F39C12"/>
</svg>
