<svg width="12" height="12" viewBox="0 0 12 12" fill="none" xmlns="http://www.w3.org/2000/svg">
<g clip-path="url(#clip0_170_1419)">
<path d="M11.6326 11.634C11.4305 11.8361 11.1028 11.8361 10.9007 11.634L6.88333 7.61661C6.55 7.90549 6.16134 8.1305 5.71735 8.29161C5.27336 8.45272 4.80091 8.53327 4.3 8.53327C3.0982 8.53327 2.08108 8.11661 1.24865 7.28327C0.416217 6.44994 0 5.44438 0 4.26661C0 3.08883 0.416667 2.08327 1.25 1.24994C2.08333 0.416606 3.09167 -6.10352e-05 4.275 -6.10352e-05C5.45833 -6.10352e-05 6.46389 0.416606 7.29167 1.24994C8.11944 2.08327 8.53333 3.08966 8.53333 4.26911C8.53333 4.74522 8.45556 5.20549 8.3 5.64994C8.14444 6.09438 7.91111 6.51105 7.6 6.89994L11.6312 10.9006C11.8347 11.1025 11.8353 11.4313 11.6326 11.634ZM4.28333 7.53327C5.18611 7.53327 5.95347 7.21383 6.58542 6.57494C7.21736 5.93605 7.53333 5.16661 7.53333 4.26661C7.53333 3.36661 7.21736 2.59716 6.58542 1.95827C5.95347 1.31938 5.18611 0.999939 4.28333 0.999939C3.3713 0.999939 2.59607 1.31938 1.95763 1.95827C1.31921 2.59716 1 3.36661 1 4.26661C1 5.16661 1.31921 5.93605 1.95763 6.57494C2.59607 7.21383 3.3713 7.53327 4.28333 7.53327Z" fill="#C7C7D1"/>
</g>
<defs>
<clipPath id="clip0_170_1419">
<rect width="12" height="12" fill="white"/>
</clipPath>
</defs>
</svg>
