<svg width="12" height="12" viewBox="0 0 12 12" fill="none" xmlns="http://www.w3.org/2000/svg">
<path d="M5.94021 11C4.63925 11 3.53576 10.5833 2.62974 9.75C1.72372 8.91667 1.18243 7.875 1.00587 6.625C0.987284 6.49537 1.01284 6.38426 1.08253 6.29167C1.15223 6.19907 1.25212 6.14815 1.38222 6.13889C1.49373 6.12963 1.5913 6.16435 1.67493 6.24306C1.75856 6.32176 1.80967 6.41667 1.82826 6.52778C1.98623 7.56481 2.44157 8.43056 3.19426 9.125C3.94696 9.81944 4.86227 10.1667 5.94021 10.1667C7.12036 10.1667 8.11931 9.75463 8.93705 8.93056C9.7548 8.10648 10.1637 7.10648 10.1637 5.93056C10.1637 4.78241 9.75015 3.8125 8.92312 3.02083C8.09608 2.22917 7.10178 1.83333 5.94021 1.83333C5.30832 1.83333 4.71592 1.97685 4.16301 2.26389C3.6101 2.55093 3.12922 2.93056 2.72034 3.40278H3.76575C3.88656 3.40278 3.98645 3.44213 4.06544 3.52083C4.14443 3.59954 4.18392 3.69907 4.18392 3.81944C4.18392 3.93981 4.14443 4.03935 4.06544 4.11806C3.98645 4.19676 3.88656 4.23611 3.76575 4.23611H1.68887C1.56807 4.23611 1.46817 4.19676 1.38919 4.11806C1.3102 4.03935 1.27071 3.93981 1.27071 3.81944V1.76389C1.27071 1.64352 1.3102 1.54398 1.38919 1.46528C1.46817 1.38657 1.56807 1.34722 1.68887 1.34722C1.80967 1.34722 1.90957 1.38657 1.98856 1.46528C2.06754 1.54398 2.10704 1.64352 2.10704 1.76389V2.81944C2.59025 2.25463 3.16406 1.81019 3.82848 1.48611C4.4929 1.16204 5.19681 1 5.94021 1C6.63715 1 7.29227 1.12963 7.90558 1.38889C8.51889 1.64815 9.05553 2.00231 9.51552 2.45139C9.9755 2.90046 10.3379 3.42593 10.6027 4.02778C10.8676 4.62963 11 5.27778 11 5.97222C11 6.66667 10.8676 7.31944 10.6027 7.93056C10.3379 8.54167 9.9755 9.07407 9.51552 9.52778C9.05553 9.98148 8.51889 10.3403 7.90558 10.6042C7.29227 10.8681 6.63715 11 5.94021 11Z" fill="#C7C7D1"/>
</svg>
