<svg width="12" height="12" viewBox="0 0 12 12" fill="none" xmlns="http://www.w3.org/2000/svg">
<path d="M7.49746 3.20526C7.49746 2.75263 7.34746 2.38947 7.04746 2.11579C6.74746 1.84211 6.35009 1.70526 5.85536 1.70526C5.55009 1.70526 5.27378 1.77105 5.02641 1.90263C4.77904 2.03421 4.56588 2.22632 4.38694 2.47895C4.21851 2.72105 3.98957 2.86053 3.70009 2.89737C3.41062 2.93421 3.16062 2.85789 2.95009 2.66842C2.80273 2.53158 2.72115 2.36316 2.70536 2.16316C2.68957 1.96316 2.73957 1.77368 2.85536 1.59474C3.1922 1.08947 3.62115 0.697368 4.1422 0.418421C4.66325 0.139474 5.2343 0 5.85536 0C6.87641 0 7.70536 0.289474 8.3422 0.868421C8.97904 1.44737 9.29746 2.20526 9.29746 3.14211C9.29746 3.61579 9.19746 4.04211 8.99746 4.42105C8.79746 4.8 8.42904 5.24737 7.8922 5.76316C7.50273 6.13158 7.23957 6.41842 7.10273 6.62368C6.96588 6.82895 6.87641 7.06316 6.8343 7.32632C6.7922 7.57895 6.6843 7.78947 6.51062 7.95789C6.33694 8.12632 6.12904 8.21053 5.88694 8.21053C5.64483 8.21053 5.43694 8.12895 5.26325 7.96579C5.08957 7.80263 5.00273 7.6 5.00273 7.35789C5.00273 6.94737 5.0922 6.57105 5.27115 6.22895C5.45009 5.88684 5.75009 5.52632 6.17115 5.14737C6.70799 4.67368 7.06325 4.30789 7.23694 4.05C7.41062 3.79211 7.49746 3.51053 7.49746 3.20526ZM5.85536 12C5.50799 12 5.21062 11.8763 4.96325 11.6289C4.71588 11.3816 4.5922 11.0842 4.5922 10.7368C4.5922 10.3895 4.71588 10.0921 4.96325 9.84474C5.21062 9.59737 5.50799 9.47368 5.85536 9.47368C6.20273 9.47368 6.50009 9.59737 6.74746 9.84474C6.99483 10.0921 7.11852 10.3895 7.11852 10.7368C7.11852 11.0842 6.99483 11.3816 6.74746 11.6289C6.50009 11.8763 6.20273 12 5.85536 12Z" fill="#C7C7D1"/>
</svg>
