<svg width="12" height="12" viewBox="0 0 12 12" fill="none" xmlns="http://www.w3.org/2000/svg">
<g clip-path="url(#clip0_170_8788)">
<path d="M2.43333 12C2.16667 12 1.93333 11.9 1.73333 11.7C1.53333 11.5 1.43333 11.2667 1.43333 11V1.5H1.25C1.10833 1.5 0.989583 1.45181 0.89375 1.35542C0.797917 1.25902 0.75 1.13957 0.75 0.997084C0.75 0.854584 0.797917 0.736111 0.89375 0.641667C0.989583 0.547222 1.10833 0.5 1.25 0.5H3.88333C3.88333 0.355556 3.93125 0.236111 4.02708 0.141667C4.12292 0.0472222 4.24167 0 4.38333 0H7.78333C7.925 0 8.04375 0.0479167 8.13958 0.14375C8.23542 0.239583 8.28333 0.358333 8.28333 0.5H10.9167C11.0583 0.5 11.1771 0.548195 11.2729 0.644583C11.3688 0.740983 11.4167 0.860428 11.4167 1.00292C11.4167 1.14542 11.3688 1.26389 11.2729 1.35833C11.1771 1.45278 11.0583 1.5 10.9167 1.5H10.7333V11C10.7333 11.2667 10.6333 11.5 10.4333 11.7C10.2333 11.9 10 12 9.73333 12H2.43333ZM2.43333 1.5V11H9.73333V1.5H2.43333ZM4.2 9.06667C4.2 9.20833 4.24819 9.32708 4.34458 9.42292C4.44098 9.51875 4.56043 9.56667 4.70292 9.56667C4.84542 9.56667 4.96389 9.51875 5.05833 9.42292C5.15278 9.32708 5.2 9.20833 5.2 9.06667V3.41667C5.2 3.275 5.15181 3.15625 5.05542 3.06042C4.95902 2.96458 4.83957 2.91667 4.69708 2.91667C4.55458 2.91667 4.43611 2.96458 4.34167 3.06042C4.24722 3.15625 4.2 3.275 4.2 3.41667V9.06667ZM6.96667 9.06667C6.96667 9.20833 7.01486 9.32708 7.11125 9.42292C7.20765 9.51875 7.32709 9.56667 7.46958 9.56667C7.61208 9.56667 7.73056 9.51875 7.825 9.42292C7.91945 9.32708 7.96667 9.20833 7.96667 9.06667V3.41667C7.96667 3.275 7.91847 3.15625 7.82208 3.06042C7.72568 2.96458 7.60624 2.91667 7.46375 2.91667C7.32125 2.91667 7.20278 2.96458 7.10833 3.06042C7.01389 3.15625 6.96667 3.275 6.96667 3.41667V9.06667Z" fill="#C7C7D1"/>
</g>
<defs>
<clipPath id="clip0_170_8788">
<rect width="12" height="12" fill="white"/>
</clipPath>
</defs>
</svg>
