<svg width="16" height="16" viewBox="0 0 16 16" fill="none" xmlns="http://www.w3.org/2000/svg">
<path d="M0 1.33333C0 0.977778 0.133333 0.666667 0.4 0.4C0.666667 0.133333 0.977778 0 1.33333 0V1.33333H0ZM0 8.91111V7.06667H1.33333V8.91111H0ZM3.28889 16V14.6667H5.13333V16H3.28889ZM0 5.13333V3.28889H1.33333V5.13333H0ZM7.08889 1.33333V0H8.93333V1.33333H7.08889ZM14.6667 1.33333V0C15.0222 0 15.3333 0.133333 15.6 0.4C15.8667 0.666667 16 0.977778 16 1.33333H14.6667ZM1.33333 16C0.977778 16 0.666667 15.8667 0.4 15.6C0.133333 15.3333 0 15.0222 0 14.6667H1.33333V16ZM0 12.7111V10.8667H1.33333V12.7111H0ZM3.28889 1.33333V0H5.13333V1.33333H3.28889ZM7.08889 16V14.6667H8.93333V16H7.08889ZM14.6667 8.91111V7.06667H16V8.91111H14.6667ZM14.6667 16V14.6667H16C16 15.0222 15.8667 15.3333 15.6 15.6C15.3333 15.8667 15.0222 16 14.6667 16ZM14.6667 5.13333V3.28889H16V5.13333H14.6667ZM14.6667 12.7111V10.8667H16V12.7111H14.6667ZM10.8667 16V14.6667H12.7111V16H10.8667ZM10.8667 1.33333V0H12.7111V1.33333H10.8667ZM3.95556 12.7111C3.76667 12.7111 3.60833 12.6472 3.48056 12.5194C3.35278 12.3917 3.28889 12.2333 3.28889 12.0444V3.95556C3.28889 3.76667 3.35278 3.60833 3.48056 3.48056C3.60833 3.35278 3.76667 3.28889 3.95556 3.28889H12.0444C12.2333 3.28889 12.3917 3.35278 12.5194 3.48056C12.6472 3.60833 12.7111 3.76667 12.7111 3.95556V12.0444C12.7111 12.2333 12.6472 12.3917 12.5194 12.5194C12.3917 12.6472 12.2333 12.7111 12.0444 12.7111H3.95556ZM4.62222 11.3778H11.3778V4.62222H4.62222V11.3778Z" fill="#BCC0C7"/>
</svg>
